<?xml version="1.0" encoding="utf-8" ?>
<svg xmlns="http://www.w3.org/2000/svg" xmlns:xlink="http://www.w3.org/1999/xlink" width="512" height="512">
	<path fill="#1DA04D" transform="scale(0.666667 0.666667)" d="M408.9 474.063C413.511 471.754 417.535 468.893 421.674 465.851C430.337 459.484 438.436 452.097 445.346 443.845L455.237 431.027L455.2 468.038L455.179 482.286C455.174 484.399 455.491 487.383 454.777 489.374C452.265 496.376 446.381 502.946 442.49 509.293C441.126 509.106 439.644 507.374 438.705 506.398C435.507 503.076 432.632 499.363 429.64 495.854C423.107 488.196 416.531 480.661 408.9 474.063Z"/>
	<path fill="#3B3F41" transform="scale(0.666667 0.666667)" d="M55.5306 384.439L62.5178 384.528C63.309 384.686 63.1199 389.485 63.1454 390.499C63.5027 404.712 64.8486 419.597 67.8692 433.492C75.3621 467.962 88.3895 500.271 108.479 529.402C113.737 537.028 119.084 544.648 125.151 551.669C167.946 601.196 225.951 635.755 290.625 647.349C301.301 649.263 311.753 650.037 322.531 650.825C324.192 652.99 325.271 656.341 326.425 658.853C316.085 658.857 306.069 657.276 295.888 655.726C252.376 649.101 212.085 632.868 176.026 607.72C165.571 600.428 155.45 592.704 146.18 583.931C123.899 562.845 104.038 538.954 89.0625 512.09C72.4486 482.288 61.8298 448.075 57.4685 414.294C56.1978 404.451 55.822 394.349 55.5306 384.439Z"/>
	<path fill="#3B3F41" transform="scale(0.666667 0.666667)" d="M441.536 351.178C443.99 350.881 446.891 351.215 449.406 351.232L466.766 351.269L519.538 351.364L491.577 409.646L480.891 434.783C476.774 422.882 470.091 412.772 464.024 401.851L436.054 351.308L441.536 351.178Z"/>
	<path fill="#3B3F41" transform="scale(0.666667 0.666667)" d="M584.152 212.807L554.548 278.605C550.768 274.157 548.084 268.281 545.137 263.231L523.318 224.994L498.389 181.45C494.183 174.08 489.335 166.724 485.857 158.993C493.504 158.298 501.364 158.628 509.039 158.672C515.326 158.708 521.771 158.424 528.012 159.159C531.317 163.695 536.604 167.774 540.726 171.619L562.476 191.968C569.889 198.673 577.842 205.004 584.152 212.807Z"/>
	<path fill="#1DA04D" transform="scale(0.666667 0.666667)" d="M75.7927 384.324L92.704 384.268C92.5527 400.861 93.8407 417.521 97.3594 433.76C104.418 466.336 119.992 497.902 140.597 524.022C154.448 541.58 170.501 556.794 188.301 570.28C213.493 589.367 242.196 604.676 272.941 612.51C283.444 615.186 293.848 616.382 304.571 617.637C306.253 619.562 307.428 622.647 308.613 624.945L316.866 641.278C304.906 638.899 292.771 637.816 280.875 634.967C259.032 629.735 237.373 622.047 217.428 611.679C190.43 597.645 166.427 578.72 145.162 557.059C130.035 541.651 117.457 523.789 107.112 504.867C91.4334 476.189 80.4321 444.698 76.8915 412.111C75.9014 402.997 75.7042 393.485 75.7927 384.324Z"/>
	<path fill="#1DA04D" transform="scale(0.666667 0.666667)" d="M705.421 132.078L471.354 131.558C468.173 127.793 465.787 123.178 463.153 119.001L448.364 95.5782L422.677 54.9427L407.758 31.4382L706.865 31.4869L706.561 100.608L706.834 118.236C706.876 122.943 706.608 127.813 707.436 132.467L706.681 132.893L706.305 132.206L705.421 132.078Z"/>
	<path fill="#3B3F41" transform="scale(0.666667 0.666667)" d="M707.436 132.467C708.355 137.732 707.714 144.088 707.722 149.468L707.732 164.349C707.728 167.159 708.129 170.566 707.178 173.233C706.169 176.066 704.658 178.673 703.311 181.351L696.765 194.3L680.23 227.519L657.567 272.223L612.584 363.241L566.368 457.801L527.988 535.919L497.106 598.797L479.269 633.362C474.682 632.983 470.092 633.045 465.495 633.038C463.446 633.036 460.974 632.784 458.986 633.173L411.385 731.284L373.458 731.232C371.93 729.497 370.92 727 369.785 724.983L360.909 709.051L341.513 674.318L307.922 608.442L290.569 574.788C287.491 568.846 283.992 563.046 281.424 556.865C287.405 559.026 293.43 561.704 299.546 563.398C311.584 566.733 323.937 569.196 336.431 569.892C344.655 570.35 352.767 569.794 360.938 568.958C382.66 566.735 403.537 561.226 423.317 551.898L454.79 533.682L391.713 661.538L440.695 661.985C443.457 657.579 445.593 652.52 447.914 647.86L461.048 621.853L513.135 518.354L546.378 450.335L582.008 378.63L592.714 355.731L617.516 307.191L666.246 207.978L682.27 175.91C685.066 170.327 687.485 164.321 690.958 159.133L691.053 158.98C693.346 155.657 695.066 151.801 697.147 148.312C700.119 143.331 703.767 138.37 706.189 133.125L705.421 132.078L706.305 132.206L706.681 132.893L707.436 132.467Z"/>
	<path fill="#1DA04D" transform="scale(0.666667 0.666667)" d="M528.012 159.159L690.958 159.133C687.485 164.321 685.066 170.327 682.27 175.91L666.246 207.978L617.516 307.191L592.714 355.731L582.008 378.63L546.378 450.335L513.135 518.354L461.048 621.853L447.914 647.86C445.593 652.52 443.457 657.579 440.695 661.985L391.713 661.538L454.79 533.682C458.044 531.25 461.43 530.257 463.611 526.572C466.664 521.414 468.835 515.431 471.482 510.023L492.581 466.164L547.897 348.529L591.468 257.913L605.466 227.111L619.098 197.621C616.808 196.787 612.178 197.433 609.649 197.416L591.147 196.909L584.152 212.807C577.842 205.004 569.889 198.673 562.476 191.968L540.726 171.619C536.604 167.774 531.317 163.695 528.012 159.159Z"/>
	<path fill="#1DA04D" transform="scale(0.666667 0.666667)" d="M172.574 346.367L76.0013 346.457C76.4896 334.558 78.9862 323.298 81.6243 311.742C93.5923 259.317 118.749 210.572 156.831 172.312C189.261 139.73 230.715 115.448 275.748 105.529C287.048 103.04 298.812 101.699 310.352 100.853C329.34 99.4595 348.751 100.497 367.787 100.49L360.046 117.184C373.816 118.864 386.95 120.808 400.209 125.112C413.865 129.546 427.266 135.715 438.761 144.405C448.849 152.031 457.313 161.496 464.666 171.73C467.873 176.194 471.223 180.54 473.739 185.449C471.463 193.505 467.643 201.078 464.013 208.588L458.942 219.73L434.605 198.098C399.092 171.127 353.604 164.692 310.336 170.664C292.427 173.136 275.479 178.731 259.125 186.313C243.738 193.447 228.721 202.568 216.256 214.147C213.291 216.901 210.696 220.168 208.068 223.238C205.319 226.449 202.5 229.524 199.946 232.899L224.326 231.194L224.812 231.664C200.427 254.257 184.707 288.151 177.492 320.2C175.666 328.313 174.063 336.523 173.191 344.801C173.105 345.619 173.328 345.966 172.574 346.367Z"/>
	<path fill="#3B3F41" transform="scale(0.666667 0.666667)" d="M224.326 231.194L225.015 231C227.715 230.148 230.44 226.465 232.656 224.638L244.582 215.386C265.5 199.998 291.337 189.846 317.007 186.318C327.703 184.848 338.634 184.642 349.414 184.864L337.55 199.018C330.025 208.056 322.601 217.373 316.046 227.136C307.578 239.747 300.358 253.24 293.894 266.973C277.665 301.449 266.694 338.863 266.674 377.203C266.671 383.943 266.72 390.989 267.611 397.673C271.34 425.657 281.586 453.614 304.895 471.251C320.24 482.861 340.125 487.888 359.195 487.55C364.357 487.459 369.648 486.715 374.753 485.987C383.384 484.757 391.989 482.266 399.901 478.573C402.743 477.247 405.929 474.762 408.9 474.063C416.531 480.661 423.107 488.196 429.64 495.854C432.632 499.363 435.507 503.076 438.705 506.398C439.644 507.374 441.126 509.106 442.49 509.293C442.567 509.758 442.506 509.52 442.74 510.096L442.934 510.562C441.11 513.428 437.9 515.7 435.248 517.751C422.659 527.487 408.375 534.065 393.253 538.816C360.408 549.137 323.445 549.768 290.545 539.428C281.079 536.452 272.156 532.457 263.39 527.857C211.442 500.597 177.752 443.614 173.026 385.86C172.245 376.32 172.228 366.564 172.478 356.999L172.815 349.964C172.866 348.989 173.124 347.585 172.759 346.69L172.574 346.367C173.328 345.966 173.105 345.619 173.191 344.801C174.063 336.523 175.666 328.313 177.492 320.2C184.707 288.151 200.427 254.257 224.812 231.664L224.326 231.194Z"/>
</svg>
